<svg width="320" height="80" viewBox="0 0 320 80" fill="none" xmlns="http://www.w3.org/2000/svg">
  <defs>
    <linearGradient id="em-hd" x1="8" y1="16" x2="72" y2="64" gradientUnits="userSpaceOnUse">
      <stop stop-color="#4F46E5"/>
      <stop offset="0.5" stop-color="#6366F1"/>
      <stop offset="1" stop-color="#06B6D4"/>
    </linearGradient>
  </defs>
  <rect x="8" y="16" width="64" height="64" rx="16" fill="url(#em-hd)"/>
  <path d="M40 32 L40 60" stroke="white" stroke-width="2.4" stroke-linecap="round"/>
  <path d="M40 32 Q30 28 22 31 L22 53 Q30 50 40 54 Z" fill="white" fill-opacity="0.9"/>
  <path d="M40 32 Q50 28 58 31 L58 53 Q50 50 40 54 Z" fill="white"/>
  <line x1="48" y1="44" x2="53" y2="39" stroke="#4F46E5" stroke-width="1.3"/>
  <line x1="48" y1="44" x2="52" y2="48" stroke="#06B6D4" stroke-width="1.3"/>
  <circle cx="48" cy="44" r="2.4" fill="#4F46E5"/>
  <circle cx="53" cy="39" r="2.4" fill="#4F46E5"/>
  <circle cx="52" cy="48" r="2.4" fill="#06B6D4"/>
  <text x="86" y="46" font-family="system-ui, sans-serif" font-size="30" font-weight="700" letter-spacing="-1" fill="#FFFFFF">Edu<tspan fill="#818CF8">MRM</tspan></text>
  <text x="87" y="64" font-family="system-ui, sans-serif" font-size="9" font-weight="500" letter-spacing="3.5" fill="#64748B">EDUCATION CRM PLATFORM</text>
</svg>
